{"asset":{"version":"2.0"},"scene":0,"scenes":[{"nodes":[0,20]}],"nodes":[{"mesh":0},{"mesh":1,"translation":[0,0,5]},{"mesh":2,"translation":[4.7085104087573972,0,0]},{"mesh":3,"translation":[-0,-4.2565280109384815,-0]},{"mesh":4},{"mesh":5},{"mesh":6},{"mesh":7},{"mesh":14,"translation":[5.0835104087573972,-4.2565280109384815,-5.375],"rotation":[0,0.38268343236508978,0,0.92387953251128674]},{"mesh":15,"translation":[5.0835104087573972,0,-5.375],"rotation":[0,0.38268343236508978,0,0.92387953251128674]},{"mesh":16,"translation":[5.0835104087573972,4.2565280109384815,-5.375],"rotation":[0,0.38268343236508978,0,0.92387953251128674]},{"mesh":11,"translation":[-4.7085104087573972,-4.6315280109384815,-5.375],"rotation":[0.38268343236508978,0,0,0.92387953251128674]},{"mesh":12,"translation":[0,-4.6315280109384815,-5.375],"rotation":[0.38268343236508978,0,0,0.92387953251128674]},{"mesh":13,"translation":[4.7085104087573972,-4.6315280109384815,-5.375],"rotation":[0.38268343236508978,0,0,0.92387953251128674]},{"mesh":8,"translation":[-5.0835104087573972,-4.6315280109384815,-5],"rotation":[-0.27059805007309845,-0.65328148243818818,-0.27059805007309851,0.65328148243818829]},{"mesh":9,"translation":[-5.0835104087573972,-4.6315280109384815,0],"rotation":[-0.27059805007309845,-0.65328148243818818,-0.27059805007309851,0.65328148243818829]},{"mesh":10,"translation":[-5.0835104087573972,-4.6315280109384815,5],"rotation":[-0.27059805007309845,-0.65328148243818818,-0.27059805007309851,0.65328148243818829]},{"mesh":17},{"mesh":18},{"mesh":19},{"children":[7,8,9,10,11,12,13,14,15,16,17,18,19,4,5,6,1,2,3]}],"meshes":[{"primitives":[{"attributes":{"POSITION":0},"indices":1,"material":0},{"attributes":{"POSITION":2},"indices":3,"mode":1,"material":1}]},{"primitives":[{"attributes":{"POSITION":4},"indices":5,"mode":1,"material":3},{"attributes":{"POSITION":6},"indices":7,"mode":1,"material":3}]},{"primitives":[{"attributes":{"POSITION":8},"indices":9,"mode":1,"material":3},{"attributes":{"POSITION":10},"indices":11,"mode":1,"material":3}]},{"primitives":[{"attributes":{"POSITION":12},"indices":13,"mode":1,"material":3},{"attributes":{"POSITION":14},"indices":15,"mode":1,"material":3}]},{"primitives":[{"attributes":{"POSITION":16,"NORMAL":17},"indices":18,"material":4}]},{"primitives":[{"attributes":{"POSITION":19,"NORMAL":20},"indices":21,"material":4}]},{"primitives":[{"attributes":{"POSITION":22,"NORMAL":23},"indices":24,"material":4}]},{"primitives":[{"attributes":{"POSITION":25},"indices":26,"mode":1,"material":2}]},{"primitives":[{"attributes":{"POSITION":27},"indices":28,"material":2},{"attributes":{"POSITION":29},"indices":30,"material":2}]},{"primitives":[{"attributes":{"POSITION":31},"indices":32,"material":2},{"attributes":{"POSITION":33},"indices":34,"material":2}]},{"primitives":[{"attributes":{"POSITION":35},"indices":36,"material":2},{"attributes":{"POSITION":37},"indices":38,"material":2}]},{"primitives":[{"attributes":{"POSITION":39},"indices":40,"material":2},{"attributes":{"POSITION":41},"indices":42,"material":2}]},{"primitives":[{"attributes":{"POSITION":43},"indices":44,"material":2},{"attributes":{"POSITION":45},"indices":46,"material":2}]},{"primitives":[{"attributes":{"POSITION":47},"indices":48,"material":2},{"attributes":{"POSITION":49},"indices":50,"material":2}]},{"primitives":[{"attributes":{"POSITION":51},"indices":52,"material":2},{"attributes":{"POSITION":53},"indices":54,"material":2}]},{"primitives":[{"attributes":{"POSITION":55},"indices":56,"material":2},{"attributes":{"POSITION":57},"indices":58,"material":2}]},{"primitives":[{"attributes":{"POSITION":59},"indices":60,"material":2},{"attributes":{"POSITION":61},"indices":62,"material":2}]},{"primitives":[{"attributes":{"POSITION":63},"indices":64,"mode":1,"material":2}]},{"primitives":[{"attributes":{"POSITION":65},"indices":66,"mode":1,"material":2}]},{"primitives":[{"attributes":{"POSITION":67},"indices":68,"mode":1,"material":2}]}],"accessors":[{"bufferView":0,"componentType":5126,"count":10201,"type":"VEC3","max":[4.7085104087573972,3.4485747021320146,5],"min":[-4.7085104087573972,-3.4485747021320146,-5]},{"bufferView":1,"componentType":5125,"count":60000,"type":"SCALAR"},{"bufferView":2,"componentType":5126,"count":10201,"type":"VEC3","max":[4.7085104087573972,3.4485747021320146,5],"min":[-4.7085104087573972,-3.4485747021320146,-5]},{"bufferView":3,"componentType":5125,"count":40400,"type":"SCALAR"},{"bufferView":4,"componentType":5126,"count":6,"type":"VEC3","max":[4.7085104087573972,4.2565280109384815,0],"min":[-4.7085104087573972,-4.2565280109384815,0]},{"bufferView":5,"componentType":5125,"count":6,"type":"SCALAR"},{"bufferView":6,"componentType":5126,"count":6,"type":"VEC3","max":[4.7085104087573972,4.2565280109384815,0],"min":[-4.7085104087573972,-4.2565280109384815,0]},{"bufferView":7,"componentType":5125,"count":6,"type":"SCALAR"},{"bufferView":8,"componentType":5126,"count":6,"type":"VEC3","max":[0,4.2565280109384815,5],"min":[0,-4.2565280109384815,-5]},{"bufferView":9,"componentType":5125,"count":6,"type":"SCALAR"},{"bufferView":10,"componentType":5126,"count":6,"type":"VEC3","max":[0,4.2565280109384815,5],"min":[0,-4.2565280109384815,-5]},{"bufferView":11,"componentType":5125,"count":6,"type":"SCALAR"},{"bufferView":12,"componentType":5126,"count":6,"type":"VEC3","max":[4.7085104087573972,0,5],"min":[-4.7085104087573972,0,-5]},{"bufferView":13,"componentType":5125,"count":6,"type":"SCALAR"},{"bufferView":14,"componentType":5126,"count":6,"type":"VEC3","max":[4.7085104087573972,0,5],"min":[-4.7085104087573972,0,-5]},{"bufferView":15,"componentType":5125,"count":6,"type":"SCALAR"},{"bufferView":16,"componentType":5126,"count":4,"type":"VEC3","max":[4.7094521108391492,4.2573793165406695,5.001],"min":[-4.7094521108391492,-4.2573793165406695,5.001]},{"bufferView":17,"componentType":5126,"count":4,"type":"VEC3","max":[0,0,-1],"min":[0,0,-1]},{"bufferView":18,"componentType":5125,"count":6,"type":"SCALAR"},{"bufferView":19,"componentType":5126,"count":4,"type":"VEC3","max":[4.7094521108391492,4.2573793165406695,5.001],"min":[4.7094521108391492,-4.2573793165406695,-5.001]},{"bufferView":20,"componentType":5126,"count":4,"type":"VEC3","max":[-1,0,0],"min":[-1,0,0]},{"bufferView":21,"componentType":5125,"count":6,"type":"SCALAR"},{"bufferView":22,"componentType":5126,"count":4,"type":"VEC3","max":[4.7094521108391492,-4.2573793165406695,5.001],"min":[-4.7094521108391492,-4.2573793165406695,-5.001]},{"bufferView":23,"componentType":5126,"count":4,"type":"VEC3","max":[0,1,0],"min":[0,1,0]},{"bufferView":24,"componentType":5125,"count":6,"type":"SCALAR"},{"bufferView":25,"componentType":5126,"count":4,"type":"VEC3","max":[4.7085104087573972,4.2565280109384815,5],"min":[-4.7085104087573972,-4.2565280109384815,-5]},{"bufferView":26,"componentType":5125,"count":6,"type":"SCALAR"},{"bufferView":27,"componentType":5126,"count":124,"type":"VEC3","max":[0.16773547094188376,0.14498997995991983,0],"min":[-0.16773547094188376,-0.1497995991983968,0]},{"bufferView":28,"componentType":5125,"count":360,"type":"SCALAR"},{"bufferView":29,"componentType":5126,"count":124,"type":"VEC3","max":[0.16773547094188376,0.14498997995991983,0],"min":[-0.16773547094188376,-0.1497995991983968,0]},{"bufferView":30,"componentType":5125,"count":360,"type":"SCALAR"},{"bufferView":31,"componentType":5126,"count":183,"type":"VEC3","max":[0.095791583166332669,0.14498997995991983,0],"min":[-0.095791583166332669,-0.15501002004008016,0]},{"bufferView":32,"componentType":5125,"count":549,"type":"SCALAR"},{"bufferView":33,"componentType":5126,"count":183,"type":"VEC3","max":[0.095791583166332669,0.14498997995991983,0],"min":[-0.095791583166332669,-0.15501002004008016,0]},{"bufferView":34,"componentType":5125,"count":549,"type":"SCALAR"},{"bufferView":35,"componentType":5126,"count":120,"type":"VEC3","max":[0.097394789579158314,0.14498997995991983,0],"min":[-0.097394789579158314,-0.1497995991983968,0]},{"bufferView":36,"componentType":5125,"count":354,"type":"SCALAR"},{"bufferView":37,"componentType":5126,"count":120,"type":"VEC3","max":[0.097394789579158314,0.14498997995991983,0],"min":[-0.097394789579158314,-0.1497995991983968,0]},{"bufferView":38,"componentType":5125,"count":354,"type":"SCALAR"},{"bufferView":39,"componentType":5126,"count":124,"type":"VEC3","max":[0.16773547094188376,0.14498997995991983,0],"min":[-0.16773547094188376,-0.1497995991983968,0]},{"bufferView":40,"componentType":5125,"count":360,"type":"SCALAR"},{"bufferView":41,"componentType":5126,"count":124,"type":"VEC3","max":[0.16773547094188376,0.14498997995991983,0],"min":[-0.16773547094188376,-0.1497995991983968,0]},{"bufferView":42,"componentType":5125,"count":360,"type":"SCALAR"},{"bufferView":43,"componentType":5126,"count":183,"type":"VEC3","max":[0.095791583166332669,0.14498997995991983,0],"min":[-0.095791583166332669,-0.15501002004008016,0]},{"bufferView":44,"componentType":5125,"count":549,"type":"SCALAR"},{"bufferView":45,"componentType":5126,"count":183,"type":"VEC3","max":[0.095791583166332669,0.14498997995991983,0],"min":[-0.095791583166332669,-0.15501002004008016,0]},{"bufferView":46,"componentType":5125,"count":549,"type":"SCALAR"},{"bufferView":47,"componentType":5126,"count":120,"type":"VEC3","max":[0.097394789579158314,0.14498997995991983,0],"min":[-0.097394789579158314,-0.1497995991983968,0]},{"bufferView":48,"componentType":5125,"count":354,"type":"SCALAR"},{"bufferView":49,"componentType":5126,"count":120,"type":"VEC3","max":[0.097394789579158314,0.14498997995991983,0],"min":[-0.097394789579158314,-0.1497995991983968,0]},{"bufferView":50,"componentType":5125,"count":354,"type":"SCALAR"},{"bufferView":51,"componentType":5126,"count":124,"type":"VEC3","max":[0.16773547094188376,0.14498997995991983,0],"min":[-0.16773547094188376,-0.1497995991983968,0]},{"bufferView":52,"componentType":5125,"count":360,"type":"SCALAR"},{"bufferView":53,"componentType":5126,"count":124,"type":"VEC3","max":[0.16773547094188376,0.14498997995991983,0],"min":[-0.16773547094188376,-0.1497995991983968,0]},{"bufferView":54,"componentType":5125,"count":360,"type":"SCALAR"},{"bufferView":55,"componentType":5126,"count":183,"type":"VEC3","max":[0.095791583166332669,0.14498997995991983,0],"min":[-0.095791583166332669,-0.15501002004008016,0]},{"bufferView":56,"componentType":5125,"count":549,"type":"SCALAR"},{"bufferView":57,"componentType":5126,"count":183,"type":"VEC3","max":[0.095791583166332669,0.14498997995991983,0],"min":[-0.095791583166332669,-0.15501002004008016,0]},{"bufferView":58,"componentType":5125,"count":549,"type":"SCALAR"},{"bufferView":59,"componentType":5126,"count":120,"type":"VEC3","max":[0.097394789579158314,0.14498997995991983,0],"min":[-0.097394789579158314,-0.1497995991983968,0]},{"bufferView":60,"componentType":5125,"count":354,"type":"SCALAR"},{"bufferView":61,"componentType":5126,"count":120,"type":"VEC3","max":[0.097394789579158314,0.14498997995991983,0],"min":[-0.097394789579158314,-0.1497995991983968,0]},{"bufferView":62,"componentType":5125,"count":354,"type":"SCALAR"},{"bufferView":63,"componentType":5126,"count":6,"type":"VEC3","max":[4.9335104087573969,4.2565280109384815,-5],"min":[4.7085104087573972,-4.2565280109384815,-5.225]},{"bufferView":64,"componentType":5125,"count":6,"type":"SCALAR"},{"bufferView":65,"componentType":5126,"count":6,"type":"VEC3","max":[4.7085104087573972,-4.2565280109384815,-5],"min":[-4.7085104087573972,-4.4815280109384812,-5.225]},{"bufferView":66,"componentType":5125,"count":6,"type":"SCALAR"},{"bufferView":67,"componentType":5126,"count":6,"type":"VEC3","max":[-4.7085104087573972,-4.2565280109384815,5],"min":[-4.9335104087573969,-4.4815280109384812,-5]},{"bufferView":68,"componentType":5125,"count":6,"type":"SCALAR"}],"bufferViews":[{"buffer":0,"byteLength":122412,"byteOffset":0,"target":34962},{"buffer":0,"byteLength":240000,"byteOffset":122412,"target":34963},{"buffer":0,"byteLength":122412,"byteOffset":362412,"target":34962},{"buffer":0,"byteLength":161600,"byteOffset":484824,"target":34963},{"buffer":0,"byteLength":72,"byteOffset":646424,"target":34962},{"buffer":0,"byteLength":24,"byteOffset":646496,"target":34963},{"buffer":0,"byteLength":72,"byteOffset":646520,"target":34962},{"buffer":0,"byteLength":24,"byteOffset":646592,"target":34963},{"buffer":0,"byteLength":72,"byteOffset":646616,"target":34962},{"buffer":0,"byteLength":24,"byteOffset":646688,"target":34963},{"buffer":0,"byteLength":72,"byteOffset":646712,"target":34962},{"buffer":0,"byteLength":24,"byteOffset":646784,"target":34963},{"buffer":0,"byteLength":72,"byteOffset":646808,"target":34962},{"buffer":0,"byteLength":24,"byteOffset":646880,"target":34963},{"buffer":0,"byteLength":72,"byteOffset":646904,"target":34962},{"buffer":0,"byteLength":24,"byteOffset":646976,"target":34963},{"buffer":0,"byteLength":48,"byteOffset":647000,"target":34962},{"buffer":0,"byteLength":48,"byteOffset":647048,"target":34962},{"buffer":0,"byteLength":24,"byteOffset":647096,"target":34963},{"buffer":0,"byteLength":48,"byteOffset":647120,"target":34962},{"buffer":0,"byteLength":48,"byteOffset":647168,"target":34962},{"buffer":0,"byteLength":24,"byteOffset":647216,"target":34963},{"buffer":0,"byteLength":48,"byteOffset":647240,"target":34962},{"buffer":0,"byteLength":48,"byteOffset":647288,"target":34962},{"buffer":0,"byteLength":24,"byteOffset":647336,"target":34963},{"buffer":0,"byteLength":48,"byteOffset":647360,"target":34962},{"buffer":0,"byteLength":24,"byteOffset":647408,"target":34963},{"buffer":0,"byteLength":1488,"byteOffset":647432,"target":34962},{"buffer":0,"byteLength":1440,"byteOffset":648920,"target":34963},{"buffer":0,"byteLength":1488,"byteOffset":650360,"target":34962},{"buffer":0,"byteLength":1440,"byteOffset":651848,"target":34963},{"buffer":0,"byteLength":2196,"byteOffset":653288,"target":34962},{"buffer":0,"byteLength":2196,"byteOffset":655484,"target":34963},{"buffer":0,"byteLength":2196,"byteOffset":657680,"target":34962},{"buffer":0,"byteLength":2196,"byteOffset":659876,"target":34963},{"buffer":0,"byteLength":1440,"byteOffset":662072,"target":34962},{"buffer":0,"byteLength":1416,"byteOffset":663512,"target":34963},{"buffer":0,"byteLength":1440,"byteOffset":664928,"target":34962},{"buffer":0,"byteLength":1416,"byteOffset":666368,"target":34963},{"buffer":0,"byteLength":1488,"byteOffset":667784,"target":34962},{"buffer":0,"byteLength":1440,"byteOffset":669272,"target":34963},{"buffer":0,"byteLength":1488,"byteOffset":670712,"target":34962},{"buffer":0,"byteLength":1440,"byteOffset":672200,"target":34963},{"buffer":0,"byteLength":2196,"byteOffset":673640,"target":34962},{"buffer":0,"byteLength":2196,"byteOffset":675836,"target":34963},{"buffer":0,"byteLength":2196,"byteOffset":678032,"target":34962},{"buffer":0,"byteLength":2196,"byteOffset":680228,"target":34963},{"buffer":0,"byteLength":1440,"byteOffset":682424,"target":34962},{"buffer":0,"byteLength":1416,"byteOffset":683864,"target":34963},{"buffer":0,"byteLength":1440,"byteOffset":685280,"target":34962},{"buffer":0,"byteLength":1416,"byteOffset":686720,"target":34963},{"buffer":0,"byteLength":1488,"byteOffset":688136,"target":34962},{"buffer":0,"byteLength":1440,"byteOffset":689624,"target":34963},{"buffer":0,"byteLength":1488,"byteOffset":691064,"target":34962},{"buffer":0,"byteLength":1440,"byteOffset":692552,"target":34963},{"buffer":0,"byteLength":2196,"byteOffset":693992,"target":34962},{"buffer":0,"byteLength":2196,"byteOffset":696188,"target":34963},{"buffer":0,"byteLength":2196,"byteOffset":698384,"target":34962},{"buffer":0,"byteLength":2196,"byteOffset":700580,"target":34963},{"buffer":0,"byteLength":1440,"byteOffset":702776,"target":34962},{"buffer":0,"byteLength":1416,"byteOffset":704216,"target":34963},{"buffer":0,"byteLength":1440,"byteOffset":705632,"target":34962},{"buffer":0,"byteLength":1416,"byteOffset":707072,"target":34963},{"buffer":0,"byteLength":72,"byteOffset":708488,"target":34962},{"buffer":0,"byteLength":24,"byteOffset":708560,"target":34963},{"buffer":0,"byteLength":72,"byteOffset":708584,"target":34962},{"buffer":0,"byteLength":24,"byteOffset":708656,"target":34963},{"buffer":0,"byteLength":72,"byteOffset":708680,"target":34962},{"buffer":0,"byteLength":24,"byteOffset":708752,"target":34963}],"buffers":[{"uri":"data:application/octet-stream;base64,","byteLength":708776}],"materials":[{"pbrMetallicRoughness":{"baseColorFactor":[1,1,1,1]},"doubleSided":true},{"pbrMetallicRoughness":{"baseColorFactor":[0,0,0,1]}},{"pbrMetallicRoughness":{"baseColorFactor":[0.15,0.15,0.15,1]}},{"pbrMetallicRoughness":{"baseColorFactor":[0.15,0.15,0.15,0.15]},"alphaMode":"BLEND"},{"pbrMetallicRoughness":{"baseColorFactor":[1,1,1,1]}}]}